<?xml version="1.0" encoding="UTF-8" standalone="no"?>
<svg
   sodipodi:docname="glove.svg"
   inkscape:version="1.4 (86a8ad7, 2024-10-11)"
   id="svg73"
   version="1.1"
   viewBox="0 0 421.43393 490.46667"
   height="490.46667mm"
   width="421.43393mm"
   xmlns:inkscape="http://www.inkscape.org/namespaces/inkscape"
   xmlns:sodipodi="http://sodipodi.sourceforge.net/DTD/sodipodi-0.dtd"
   xmlns="http://www.w3.org/2000/svg"
   xmlns:svg="http://www.w3.org/2000/svg"
   xmlns:rdf="http://www.w3.org/1999/02/22-rdf-syntax-ns#"
   xmlns:cc="http://creativecommons.org/ns#"
   xmlns:dc="http://purl.org/dc/elements/1.1/">
  <defs
     id="defs67" />
  <sodipodi:namedview
     inkscape:window-maximized="1"
     inkscape:window-y="-8"
     inkscape:window-x="-8"
     inkscape:window-height="1369"
     inkscape:window-width="2560"
     fit-margin-bottom="0"
     fit-margin-right="0"
     fit-margin-left="0"
     fit-margin-top="0"
     showgrid="false"
     inkscape:document-rotation="0"
     inkscape:current-layer="layer1"
     inkscape:document-units="mm"
     inkscape:cy="981.42857"
     inkscape:cx="744.28571"
     inkscape:zoom="0.35"
     inkscape:pageshadow="2"
     inkscape:pageopacity="0.0"
     borderopacity="1.0"
     bordercolor="#666666"
     pagecolor="#ffffff"
     id="base"
     inkscape:showpageshadow="2"
     inkscape:pagecheckerboard="0"
     inkscape:deskcolor="#d1d1d1" />
  <metadata
     id="metadata70">
    <rdf:RDF>
      <cc:Work
         rdf:about="">
        <dc:format>image/svg+xml</dc:format>
        <dc:type
           rdf:resource="http://purl.org/dc/dcmitype/StillImage" />
      </cc:Work>
    </rdf:RDF>
  </metadata>
  <g
     transform="translate(90.520542,111.42977)"
     id="layer1"
     inkscape:groupmode="layer"
     inkscape:label="Layer 1">
    <path
       style="fill:#333333;fill-opacity:1;stroke-width:0.671957"
       d="m 118.17752,269.04347 c -2.80733,-1.91855 -26.349931,-15.3461 -49.999591,-28.51732 -19.21268,-10.70012 -22.08022,-12.61951 -27.46046,-18.3806 -4.998,-5.35181 -8.35822,-11.13708 -11.29346,-19.44381 l -1.89952,-5.37565 -0.19006,-55.96168 c -0.18387,-54.139717 -0.14763,-56.057577 1.11308,-58.907607 3.31249,-7.48846 13.69232,-7.72549 17.38783,-0.39707 l 1.5119,2.9982 v 37.895127 c 0,30.1127 0.17313,37.82868 0.84298,37.57164 0.46364,-0.17791 5.37733,-3.09118 10.91931,-6.47391 l 10.07634,-6.15046 0.33598,-59.064907 c 0.33342,-58.6162 0.34665,-59.07933 1.74168,-60.96173 4.68302,-6.31915 12.76973,-6.45585 16.89175,-0.28555 l 1.52529,2.28324 v 52.64931 c 0,28.957117 0.18135,52.649287 0.40299,52.649287 0.22164,0 5.21092,-2.89073 11.087291,-6.42387 l 10.68432,-6.42387 0.003,-56.908137 c 0.003,-55.22195 0.0413,-56.9717603 1.31183,-59.0554903 2.82559,-4.63411 7.84508,-5.98273998 12.79676,-3.43823 5.75834,2.95903 5.37345,-1.87847 5.37464,67.5489003 l 0.003,61.291357 -7.22355,4.30112 c -3.97293,2.36561 -15.23664,9.12913 -25.030401,15.03003 -9.79379,5.90093 -24.61046,14.74979 -32.92594,19.66418 -8.31547,4.9144 -16.13989,9.54953 -17.38758,10.30031 l -2.26855,1.36504 0.33696,6.44446 c 0.31723,6.06745 2.46913,14.17195 3.76291,14.17195 0.2608,0 1.21675,-0.52916 2.12434,-1.17594 0.9076,-0.64674 23.88024,-14.50649 51.050331,-30.7994 l 49.39963,-29.6235 0.336,-55.715137 c 0.37946,-62.92761 -0.0167,-58.65377 5.69195,-61.41725 3.54129,-1.71431 7.29224,-1.42535 10.09269,0.77749 3.72962,2.93372 3.56693,0.14414 3.81157,65.35779 l 0.22653,60.390347 -15.45503,9.25672 c -8.50026,5.09116 -18.78121,11.20455 -22.84655,13.58527 -7.49774,4.39076 -17.59427,10.44051 -49.052911,29.39208 -9.609,5.78874 -18.45365,11.08827 -19.65477,11.77674 -1.20113,0.68847 -2.18374,1.41332 -2.1836,1.61084 2.7e-4,0.38597 17.30484,10.30491 18.5613,10.63929 0.41505,0.11046 2.22935,-0.67813 4.03172,-1.75242 1.80239,-1.07428 11.29019,-6.77595 21.083951,-12.67039 9.79379,-5.89444 25.36643,-15.21288 34.60584,-20.70764 9.23941,-5.49473 24.54227,-14.61751 34.00637,-20.2728 9.46407,-5.65531 17.74584,-10.48898 18.40394,-10.7415 1.13395,-0.43516 1.17605,-2.39453 0.80505,-37.47721 -0.43193,-40.845917 -0.33817,-41.990377 3.683,-44.952707 4.62163,-3.40468 11.88979,-1.62924 14.49715,3.54133 4.10427,17.53742 1.51191,37.929277 1.51191,56.217327 0,57.99361 -0.0198,58.34262 -3.85791,68.22714 -3.59313,9.25343 -9.73061,16.72241 -18.65268,22.69924 -3.84731,2.5773 -16.3504,9.89158 -31.76966,18.58521 -1.3751,0.7753 -4.31448,2.46213 -6.53193,3.74851 -11.44506,6.63937 -31.08434,17.92311 -32.31523,18.56666 -1.15361,0.60314 -1.87545,0.4133 -4.03175,-1.06035 z m 11.50102,-24.2294 c 4.42584,-2.52381 11.46624,-6.60596 15.64529,-9.07143 4.17906,-2.46549 7.73946,-4.48267 7.91199,-4.48267 0.17251,0 2.19615,-1.16412 4.49694,-2.58692 2.30079,-1.42279 9.44753,-5.70044 15.88161,-9.50589 6.43409,-3.80542 12.85675,-7.96552 14.27258,-9.24465 4.89892,-4.4259 8.5974,-14.82394 8.62325,-24.24369 0.007,-2.34064 -0.21513,-4.15494 -0.49231,-4.03175 -0.57994,0.25776 -8.8002,5.11636 -38.46957,22.73753 -11.64167,6.91417 -28.96418,17.19966 -38.49447,22.85664 -11.65765,6.91972 -17.10587,10.50729 -16.64959,10.96354 0.65262,0.65264 18.15443,10.96515 18.87481,11.12152 0.19384,0.0421 3.9736,-1.98843 8.39947,-4.51223 z"
       id="path44"
       sodipodi:nodetypes="cssscssscssscssscsssccssccsssscsssccsssscsssssssssssssccsssssccsssssscssssss" />
  </g>
</svg>
